<svg width="105" height="105" viewBox="0 0 105 105" fill="none" xmlns="http://www.w3.org/2000/svg">
<g clip-path="url(#clip0_580_309)">
<path d="M61.3595 65.5018C65.3768 64.4716 68.8664 62.2058 71.4514 58.9492C74.6208 54.9564 76.0259 49.9704 75.4078 44.9096C74.7898 39.8499 72.2232 35.3451 68.1841 32.2331C64.2708 29.2161 59.3923 27.8748 54.4472 28.4565C49.5024 29.0381 45.0678 31.4746 41.9606 35.3169C39.2968 38.6109 37.8441 42.5841 37.7592 46.8071C37.6213 53.6626 35.2589 60.3188 31.1069 65.5496L26.5638 71.273C24.5486 73.8118 24.9745 77.5167 27.5133 79.5319L31.7959 82.9313C34.3347 84.9465 38.0397 84.5204 40.0548 81.9818L44.5976 76.2587C48.7956 70.9702 54.5793 67.2404 61.3595 65.5018ZM40.1813 46.8559C40.2553 43.1756 41.5219 39.7123 43.8443 36.8404C49.4236 29.9411 59.6788 28.7349 66.7048 34.1518C70.2275 36.8717 72.4641 40.7927 73.0028 45.2035C73.5417 49.6155 72.3168 53.9623 69.5538 57.4431C67.3003 60.2821 64.2586 62.2573 60.7576 63.1551C53.6135 64.9872 47.4716 68.8651 42.9668 74.3825L33.2848 66.6972C37.5904 61.11 40.0361 54.0828 40.1813 46.8559ZM28.9717 72.1362L29.5814 71.3681L38.3957 80.1754L38.1574 80.4757C38.0318 80.6338 37.8931 80.7748 37.7474 80.9048L28.9717 72.1362ZM31.0975 69.4582L31.7812 68.5968L41.4773 76.2933L39.9118 78.2654L31.0975 69.4582ZM29.0194 77.6345C28.0002 76.8254 27.5614 75.5533 27.7622 74.3523L35.1873 81.7715C34.5215 81.7216 33.8634 81.4793 33.3023 81.0339L29.0195 77.6343L29.0194 77.6345Z" fill="black"/>
<path d="M46.1365 41.1814C46.4566 40.6261 46.8262 40.088 47.2351 39.5824C47.6558 39.0623 47.5752 38.2996 47.055 37.8789C46.5382 37.4612 45.7722 37.5388 45.3514 38.059C44.8629 38.6631 44.4208 39.3065 44.0375 39.9716C43.7339 40.4981 43.8703 41.1576 44.3326 41.5245C44.3791 41.5615 44.429 41.5955 44.4821 41.6261C45.0617 41.9599 45.8023 41.761 46.1365 41.1814Z" fill="black"/>
<path d="M40.2808 60.0247C40.3789 60.1027 40.4911 60.1665 40.6152 60.2124C41.2429 60.4438 41.9394 60.1226 42.1707 59.495C43.6574 55.4627 44.455 51.2397 44.5413 46.9433C44.5556 46.2332 44.6312 45.5246 44.7662 44.8373C44.8951 44.1808 44.4673 43.5443 43.8108 43.4153C43.1544 43.2865 42.5177 43.7143 42.3888 44.3708C42.227 45.1955 42.1362 46.0445 42.1192 46.8947C42.0383 50.9209 41.2909 54.8783 39.8977 58.6569C39.712 59.1605 39.882 59.7082 40.2808 60.0247Z" fill="black"/>
<path d="M64.0418 58.3633C63.7252 57.774 62.9906 57.553 62.4014 57.8698C61.5467 58.3292 60.6293 58.6862 59.6745 58.931C59.0265 59.0971 58.6359 59.7573 58.802 60.4053C58.8702 60.6714 59.0218 60.894 59.2215 61.0525C59.5083 61.2802 59.8944 61.3757 60.2764 61.2776C61.4205 60.9842 62.5213 60.5556 63.5482 60.0038C64.1376 59.6871 64.3587 58.9526 64.0418 58.3633Z" fill="black"/>
<path d="M64.1818 37.7146C69.4129 41.8669 70.2905 49.5009 66.1382 54.7321C65.9021 55.0295 65.6506 55.3183 65.3906 55.5905C64.9285 56.0744 64.9461 56.841 65.4299 57.3032C65.4572 57.3292 65.4853 57.3538 65.5144 57.3769C65.9993 57.7618 66.7065 57.7204 67.1425 57.2639C67.4532 56.9383 67.7539 56.5934 68.0357 56.2383C73.0186 49.9609 71.9655 40.7999 65.688 35.817C65.1641 35.4011 64.4021 35.4887 63.9862 36.0127C63.5702 36.5367 63.6578 37.2987 64.1818 37.7146Z" fill="black"/>
<path d="M69.6978 30.7648C70.2218 31.1807 70.9838 31.0931 71.3997 30.5691L75.6171 25.256C76.033 24.7321 75.9454 23.9701 75.4214 23.5542C74.8975 23.1382 74.1355 23.2259 73.7196 23.7498L69.5022 29.0629C69.0862 29.5869 69.1738 30.3489 69.6978 30.7648Z" fill="black"/>
<path d="M58.6116 25.0205C58.5457 25.4646 58.7294 25.8878 59.0573 26.1481C59.2182 26.2758 59.414 26.3643 59.6318 26.3966C60.2936 26.4948 60.9098 26.0381 61.008 25.3764L62.0037 18.669C62.1019 18.0071 61.6452 17.3911 60.9835 17.2929C60.3217 17.1947 59.7055 17.6515 59.6073 18.3132L58.6116 25.0205Z" fill="black"/>
<path d="M68.3737 74.0716L65.8818 67.7653C65.636 67.1429 64.9322 66.8379 64.31 67.0839C63.6879 67.3297 63.3827 68.0334 63.6287 68.6556L66.1206 74.962C66.2015 75.1668 66.3321 75.3372 66.4931 75.4651C66.821 75.7253 67.2751 75.8082 67.6924 75.6433C68.3145 75.3975 68.6195 74.6938 68.3737 74.0716Z" fill="black"/>
<path d="M44.6663 20.6623L47.1582 26.9687C47.2391 27.1735 47.3697 27.344 47.5307 27.4718C47.8586 27.7321 48.3127 27.8149 48.73 27.65C49.3521 27.4042 49.6573 26.7006 49.4113 26.0783L46.9194 19.7719C46.6737 19.1496 45.9699 18.8446 45.3476 19.0906C44.7255 19.3364 44.4204 20.0399 44.6663 20.6623Z" fill="black"/>
<path d="M80.1368 64.5669L74.8238 60.3495C74.2998 59.9336 73.5378 60.0212 73.1219 60.5452C72.706 61.0692 72.7936 61.8312 73.3176 62.2471L78.6306 66.4644C79.1546 66.8804 79.9166 66.7928 80.3325 66.2688C80.7484 65.7448 80.6609 64.9829 80.1368 64.5669Z" fill="black"/>
<path d="M39.9175 34.1885C40.3334 33.6645 40.2458 32.9026 39.7218 32.4866L34.4087 28.2692C33.8848 27.8533 33.1228 27.9409 32.7069 28.4649C32.2909 28.9889 32.3785 29.7509 32.9025 30.1668L38.2156 34.3842C38.7397 34.8002 39.5016 34.7125 39.9175 34.1885Z" fill="black"/>
<path d="M77.9362 51.6066C78.0971 51.7343 78.2928 51.8229 78.5107 51.8552L85.218 52.8509C85.8797 52.9491 86.4959 52.4924 86.5941 51.8307C86.6923 51.1689 86.2354 50.5527 85.5738 50.4546L78.8665 49.4588C78.2048 49.3606 77.5886 49.8173 77.4904 50.4791C77.4245 50.9229 77.6084 51.3464 77.9362 51.6066Z" fill="black"/>
<path d="M34.5294 42.8788L27.8221 41.883C27.1604 41.7848 26.5442 42.2415 26.446 42.9033C26.3801 43.3471 26.5638 43.7705 26.8917 44.0308C27.0526 44.1585 27.2484 44.2471 27.4662 44.2794L34.1736 45.2752C34.8353 45.3734 35.4515 44.9166 35.5497 44.2549C35.6481 43.5931 35.1908 42.9768 34.5294 42.8788Z" fill="black"/>
<path d="M76.2369 39.5771C76.3178 39.782 76.4484 39.9524 76.6094 40.0802C76.9373 40.3405 77.3914 40.4233 77.8087 40.2585L84.115 37.7665C84.7372 37.5207 85.0422 36.8169 84.7964 36.1948C84.5507 35.5727 83.8469 35.2675 83.2246 35.5134L76.9183 38.0053C76.2961 38.2511 75.9911 38.9549 76.2369 39.5771Z" fill="black"/>
</g>
<defs>
<clipPath id="clip0_580_309">
<rect width="73.6299" height="73.6299" fill="white" transform="translate(46.5864 0.665649) rotate(38.4415)"/>
</clipPath>
</defs>
</svg>
